# xmcd
#
# Track frame offsets:
# 150
# 18945
# 31677
# 52452
# 66495
# 84795
# 92025
# 105747
# 126082
# 142285
# 156637
# 173450
#
# Disc length: 2492 seconds
#
#
# Revision: 5
# Processed by: cddbd v1.5.2PL0 Copyright (c) Steve Scherf et al.
# Submitted via: FreeRIP 2.90 
#
DISCID=a309ba0c
DTITLE=Pino Daniele - Nero a metà
DYEAR=1980
DGENRE=Blues
TTITLE0=I say i' sto ccà
TTITLE1=Musica musica
TTITLE2=Quanno chiove
TTITLE3=Puozze passà'  nu guaio
TTITLE4=Voglio di più
TTITLE5=Appocundria
TTITLE6=A me me piace 'o blues
TTITLE7=E so cuntento 'e stà'
TTITLE8=Nun me scoccià'
TTITLE9=Alleria
TTITLE10=A testa in giù
TTITLE11=Sotto 'o sole
EXTD=1980 EMI Italiana S.P.A. YEAR: 1980
EXTT0=
EXTT1=
EXTT2=
EXTT3=
EXTT4=
EXTT5=
EXTT6=
EXTT7=
EXTT8=
EXTT9=
EXTT10=
EXTT11=
PLAYORDER=
